<svg xmlns="http://www.w3.org/2000/svg" width="1200" height="360" viewBox="0 0 1200 360"><rect width="1200" height="360" rx="24" fill="#0a1220"/><g stroke="#1e3045" opacity=".6"><path d="M650 80H1140M650 140H1140M650 200H1140M650 260H1140M720 45V310M830 45V310M940 45V310M1050 45V310"/></g><path d="M650 245L700 228L750 240L800 177L850 194L900 126L950 151L1000 82L1050 103L1110 58" fill="none" stroke="#fb8653" stroke-width="5" stroke-linejoin="round"/><circle cx="1110" cy="58" r="7" fill="#fb8653"/><text x="62" y="83" font-family="Arial,sans-serif" font-size="16" letter-spacing="5" fill="#71d8d2">TRAINING / EVIDENCE / PROGRESS</text><text x="58" y="176" font-family="Arial,sans-serif" font-size="78" font-weight="bold" fill="#f5f7fb">Runline<tspan fill="#fb8653">.</tspan></text><text x="62" y="228" font-family="Arial,sans-serif" font-size="26" fill="#b6c2d2">Understand the run. See the evidence.</text><text x="62" y="300" font-family="Arial,sans-serif" font-size="15" fill="#71859c">PRIVATE WORKSPACE · TRANSPARENT ANALYSIS</text></svg>
